<svg xmlns="http://www.w3.org/2000/svg" width="3.6in" height="3.6in" viewBox="0 0 256 256"><path fill="#231f20" d="M181.1 246.5l-19.2.3-40.6.7-36.7.6-8.9.2a46.3 46.3 0 0 1-19.4-3.8c-8.1-3.6-15.4-9.9-18.1-18.4a22.2 22.2 0 0 1-1-8.9l1.7-21.8 2.9-37.8 3.2-42.5 2.8-36.4 1.5-19.4v-.9l-2.5 2.5h154c2.1 0 4.2.1 6.3 0h.3l-2.5-2.5.5 5.7 1.3 15.5 2 22.1 2.3 26.1 2.4 27.1 2.3 25.4 1.8 20.6 1.2 13.2a26.4 26.4 0 0 1 .2 2.8 20.1 20.1 0 0 1-1.4 8.4c-4 11-15.4 17.8-26.5 20.2a47.5 47.5 0 0 1-9.9 1c-3.2 0-3.2 5 0 5 13-.1 26.9-4.8 35.5-15 4.6-5.5 7.9-12.9 7.3-20.2l-.9-10.2-1.7-18.8-2.2-24.5-2.4-27.2-2.4-26.9-2.1-23.8-1.5-17.6c-.3-2.8-.5-5.7-.8-8.5v-.4a2.6 2.6 0 0 0-2.5-2.5H66.6c-6.5 0-13-.2-19.5 0h-.3a2.6 2.6 0 0 0-2.5 2.5l-1 13.7-2.6 33.7-3.2 42.5-3.1 40-2 26.3c-.1 1.4-.3 2.9-.3 4.4-.4 8.2 4 16.3 9.7 21.8 7.6 7.3 17.8 11.2 28.1 12.2a67.6 67.6 0 0 0 9 .2l31.7-.5 42.2-.7 27-.5h1.3c3.2-.1 3.2-5.1 0-5z"/><path fill="#231f20" d="M90.8 85.9c.4-17.5 2.2-35.5 8.3-52a62.3 62.3 0 0 1 3.8-8.4 50.6 50.6 0 0 1 4.3-7l.3-.4.6-.7 1.2-1.4 2.4-2.5 1.2-1 .6-.5.4-.3 2.5-1.6 1.3-.7.7-.3h-.2l.4-.2 2.7-.8 1.2-.3h.7c-.9.1.1 0 .3 0h4c.7.1-.5-.1.2.1h.7l2.7.7 1.3.5c.6.2-.4-.2.2 0l.8.4L136 11l1.3.8.7.5.2.2c.5.3-.3-.3 0 0l2.6 2.3 2.6 2.6 1.1 1.3.6.7.2.3.2.2a81.8 81.8 0 0 1 4.5 6.9l2.1 4.1.9 1.9.5 1.1a.8.8 0 0 0 .2.4c0 .2.1.3.2.5 6 14.5 8.6 30.4 9.4 46 .1 2.4.2 4.8.2 7.2s5 3.2 5 0c-.3-17.1-2.4-34.6-8.3-50.7-4-10.9-9.9-21.9-19.3-29-6.8-5.1-15.6-7.4-23.7-4.2-9.9 3.9-16.4 13.3-20.6 22.7-7.1 16-9.6 33.7-10.5 50.9l-.3 8.2c-.1 3.2 4.9 3.2 5 0z"/></svg>