<svg xmlns="http://www.w3.org/2000/svg" width="3.6in" height="3.6in" viewBox="0 0 256 256"><path d="M129 35.3a64 64 0 0 1 7.1-6.7c-.4.4.4-.3.5-.3l1-.7 2-1.4 4-2.4a54.8 54.8 0 0 1 8.3-3.6 54 54 0 0 1 9-2.3l2.3-.4 1.1-.2c.7-.1-.5.1.2 0h.8l4.7-.4a76.9 76.9 0 0 1 9.6.1l4.7.5 4.7.7c3.2.7 6.4 1.5 9.5 2.4a81.2 81.2 0 0 1 32.9 19.8l3.4 3.6 1.4 1.8.8.9c.3.4-.4-.4.1.2l.5.7a63.1 63.1 0 0 1 5.2 8.2 59.5 59.5 0 0 1 6.3 18.5c.1.4.1.9.2 1.3a1.3 1.3 0 0 0 .1.6c-.1-.6 0 .2 0 .2l.3 2.6c.1 1.9.2 3.7.2 5.6a50.7 50.7 0 0 1-.3 5.5l-.3 2.8c-.1.6-.2 1.5-.3 2.4a92.1 92.1 0 0 1-7.9 24.1 130.4 130.4 0 0 1-7.5 13.1L229 139c-.4.6.2-.1-.2.3s-2.9 2.9-4.4 4.3l-22 21.7-30.7 30.2-28.7 28.3-16 15.7-.7.7h3.5l-12-11.5-27.3-26.2-29.1-28-18.1-17.4C31 145.3 20.7 131.7 13.9 116a99.1 99.1 0 0 1-7.1-24c-.1-.8-.1-1.4-.3-2.4s-.2-2-.2-3a48.7 48.7 0 0 1-.2-5.4c0-1.8.1-3.5.2-5.2l.3-2.4c0-.1.1-.9 0-.3s.1-.3.1-.5.1-.9.2-1.4a74.8 74.8 0 0 1 2.4-9.6l.8-2.1a4.9 4.9 0 0 0 .4-1.1.8.8 0 0 0 .2-.5c.1-.2.1-.1 0 .1s.1-.3.2-.4 1.3-2.8 2-4.2a57.5 57.5 0 0 1 5-7.8l.5-.7c-.2.2.2-.3.2-.3l.4-.5 1.6-1.8c1-1.2 2-2.3 3.1-3.4a67.2 67.2 0 0 1 14.3-11 62.1 62.1 0 0 1 8.1-4.2l1.1-.5.6-.3 2.2-.9 4.5-1.5a66.1 66.1 0 0 1 9-2.4l4.5-.8 1.1-.2h.6c-.5.1-.1 0 0 0l2.4-.3a83.3 83.3 0 0 1 18 .2h1.6l2.3.4 4.3 1a55 55 0 0 1 8.1 2.7h.5c.4.2-.5-.2 0 .1l1 .4 1.9.9c1.3.6 2.5 1.3 3.7 2a27.1 27.1 0 0 1 3.5 2.4l.8.5.3.3c-.4-.4.1 0 .2.1l1.6 1.3a51.2 51.2 0 0 1 5.6 5.8 2.5 2.5 0 0 0 3.5 0 2.5 2.5 0 0 0 0-3.6c-7.4-9-18-14.9-29.3-17.8a83 83 0 0 0-37.1-.5A85.2 85.2 0 0 0 28 28.8 68 68 0 0 0 4.9 59.4c-5.1 14-4.7 29.4-.8 43.7 5.7 21.5 18.3 40.9 34.3 56.3l12.5 12 27.8 26.7 29.4 28.2 17.3 16.7.9.8a2.6 2.6 0 0 0 3.5 0l11.6-11.5 27.1-26.7 31.6-31 24.9-24.5 6.4-6.4 1.1-1a46 46 0 0 0 3.2-4.5c1.5-2.2 3-4.5 4.4-6.8 9-14.8 15.3-31.8 14.7-49.3a66.4 66.4 0 0 0-14.2-38.9c-8.3-10.7-19.7-18.9-32-24.2a88.5 88.5 0 0 0-39.6-7.2c-13.3.9-26.1 5.2-36.6 13.4a60.9 60.9 0 0 0-6.9 6.5c-2.2 2.4 1.4 6 3.5 3.6z"/></svg>