<svg xmlns="http://www.w3.org/2000/svg" width="3.6in" height="3.6in" viewBox="0 0 256 256"><path d="M125.8 12l3.8 7.7 9.2 18.6 11 22.3 9.6 19.3c1.5 3.1 2.8 6.3 4.5 9.2.7 1.2 1.6 1.3 2.8 1.4l5.2.8 19.3 2.8 24.6 3.6 22.1 3.2 12.2 1.8h.5l-1.1-4.2-6.2 6-14.7 14.5-17.9 17.5-15.4 15c-2.5 2.4-5 4.6-7.3 7.1s-.8 2.4-.5 3.7l.8 5.2 3.3 19.1 4.2 24.5 3.8 22.2 2.1 12.1v.6l3.7-2.9-7.7-4-18.2-9.6-22.2-11.6-19-10-9-4.8c-1.5-.7-2.5-.1-3.7.5l-4.7 2.5-17.2 9-22 11.6-19.8 10.5-10.9 5.7-.5.2 3.7 2.9 1.5-8.6 3.4-20.3 4.3-24.7 3.6-21.2c.6-3.3 1.2-6.6 1.7-10 .3-1.7-.5-2.4-1.5-3.4l-3.7-3.7-13.9-13.5-17.8-17.4-16.1-15.7L6.9 99l-.4-.4-1.1 4.2 8.4-1.3 20.5-3L59 95l21.3-3.1 6.9-1 3.2-.5c1.3-.3 1.7-1.3 2.2-2.3l2.4-4.8 8.6-17.4 11-22.3 9.9-20.1 5.4-11 .3-.5a2.6 2.6 0 0 0-.9-3.4 2.6 2.6 0 0 0-3.5.9l-3.8 7.7-9.1 18.4L102 57.9l-9.6 19.3-3.1 6.3a29.6 29.6 0 0 0-1.5 3.1.1.1 0 0 1-.1.1l1.5-1.2-8.5 1.3-20.3 2.9-24.5 3.6-21.4 3.1-7 1-3.3.5H4c-1.9.3-2.3 3-1.1 4.2l6.2 6 14.7 14.4 17.7 17.3 15.5 15 5.1 4.9a18.1 18.1 0 0 0 2.4 2.4h.1l-.7-2.4-1.4 8.4-3.5 20.4-4.2 24.4-3.6 21.3-1.8 10.3a2.5 2.5 0 0 0 3.6 2.9l7.6-4 18.3-9.6 21.9-11.5 19.1-10.1 6.2-3.3a28 28 0 0 0 3-1.5h-2.4l7.6 4 18.2 9.6 22 11.5 19 10c3.1 1.6 6.2 3.4 9.3 4.9h.2a2.5 2.5 0 0 0 3.6-2.9l-1.4-8.4-3.5-20.3-4.2-24.4-3.6-21.2-1.2-7.1c-.2-1-.3-2.2-.6-3.3l-.7 2.4 6.2-6 14.7-14.3 17.7-17.3 15.5-15.1c2.5-2.4 5.1-4.8 7.5-7.3a.1.1 0 0 1 .1-.1c1.2-1.2.8-3.9-1.1-4.2l-8.5-1.2-20.4-3-24.5-3.5-21.3-3.1-7-1a19.9 19.9 0 0 0-3.4-.5h-.1l1.5 1.2-3.8-7.8-9.1-18.5-11-22.2-9.5-19.3c-1.6-3.1-3-6.4-4.7-9.4-1.5-3-5.8-.5-4.4 2.4z"/></svg>