<svg xmlns="http://www.w3.org/2000/svg" width="3.6in" height="3.6in" viewBox="0 0 256 256"><path fill="#231f20" d="M249.8 127.6a121 121 0 0 1-6 37.8 122.6 122.6 0 0 1-41.6 58.9 121 121 0 0 1-32.3 17.7 118.2 118.2 0 0 1-37.2 7.3 122.2 122.2 0 0 1-38-4.5A123.8 123.8 0 0 1 61 229.4a127.9 127.9 0 0 1-27.1-24.3 123.4 123.4 0 0 1-18.6-31.2 122.1 122.1 0 0 1 8.5-109.3A121.9 121.9 0 0 1 152.4 8.3a119.6 119.6 0 0 1 34.8 12.9 125.4 125.4 0 0 1 28.9 22.3 122.4 122.4 0 0 1 32.3 65.6 114.4 114.4 0 0 1 1.4 18.5c0 3.3 5 3.3 5 0a126.9 126.9 0 0 0-6.2-39.1 125.4 125.4 0 0 0-17.1-34.1A130.5 130.5 0 0 0 205 26.9a127.3 127.3 0 0 0-33.5-18.4 127 127 0 0 0-78.1-2.9 124.2 124.2 0 0 0-34.9 16 126.2 126.2 0 0 0-47.9 58.2 127.2 127.2 0 0 0-5.8 77.9 122.8 122.8 0 0 0 14.7 35.5 125.5 125.5 0 0 0 24.2 29.2 126.4 126.4 0 0 0 69.7 31.2 130.9 130.9 0 0 0 40-1.7 126.5 126.5 0 0 0 66.2-36.6 129 129 0 0 0 21.9-31 126.9 126.9 0 0 0 13.3-56.7c0-3.2-5-3.2-5 0z"/><path fill="#231f20" d="M45.3 217.5a77.7 77.7 0 0 1 2.1-13.4 80.2 80.2 0 0 1 4-12.6c0-.1.1-.2.1-.3s-.1.3 0 0l.3-.7.7-1.5a24.4 24.4 0 0 1 1.4-2.8 48.8 48.8 0 0 1 3.1-5.5c1.1-1.8 2.2-3.5 3.4-5.1l.9-1.2.2-.3s-.2.3 0 .1a1.8 1.8 0 0 1 .5-.7l2-2.4a75.8 75.8 0 0 1 8.5-8.5l2.3-1.9.6-.5c.1-.1.6-.5.3-.2l1.2-.9a55 55 0 0 1 5-3.4 82.4 82.4 0 0 1 10.5-5.8l2.7-1.2h.3l.7-.3 1.4-.6 5.7-2a99.9 99.9 0 0 1 11.7-2.9l2.9-.5 1.4-.2h1.1c2-.3 4-.4 6-.6a94.7 94.7 0 0 1 11.9.1l6 .6h.9l1.5.2 2.9.6a73.8 73.8 0 0 1 11.4 3.1l2.7 1 1.4.5.6.3h.3l5.3 2.5a80 80 0 0 1 10 6.3l.5.4h.2l1.2 1 2.3 1.9a56.6 56.6 0 0 1 4.3 4.2 58.2 58.2 0 0 1 4 4.5l.9 1.1c-.2-.3.1.1.2.2a1.8 1.8 0 0 0 .5.7l1.8 2.5a92.6 92.6 0 0 1 6.2 11.1l.6 1.5c.1.1.1.3.2.4l.3.8 1.2 3.2c.8 2.2 1.4 4.3 2 6.6s1.1 4.6 1.6 6.9.7 4.6 1 7.1.4 5.2.5 7.7l.8-1.7-2.1 1.9-2.6 2.3-1.7 1.3-.8.7-.5.3c-.3.3-.4.4-.1.2a133.1 133.1 0 0 1-23 14.2 116.3 116.3 0 0 1-15.8 6.5 119.7 119.7 0 0 1-18.8 4.5 109.4 109.4 0 0 1-43.7-2.1C83.7 242 66.5 232.6 51.1 221l-6.5-5.3a2.6 2.6 0 0 0-3.5 0 2.5 2.5 0 0 0 0 3.6c19.6 16.4 42.6 29.5 68 34a116.3 116.3 0 0 0 55.9-3.7 134.5 134.5 0 0 0 37.1-18.6c3.5-2.5 6.9-5.1 10.1-7.9l2.2-2.1.5-.4c1.1-1.2.8-2.7.7-4.1-.8-15.7-4.9-31.3-13.5-44.5a75.5 75.5 0 0 0-30-26.6 90.2 90.2 0 0 0-38.8-9.1 98.9 98.9 0 0 0-39.5 7.6 88.4 88.4 0 0 0-33.2 23.5 82.5 82.5 0 0 0-18.7 38.3 93 93 0 0 0-1.6 11.8 2.5 2.5 0 0 0 5 0z"/><path fill="#231f20" d="M173.7 91c-.1 18.9-12.1 36.4-29.9 42.9a45.9 45.9 0 0 1-51.2-14c-12.2-14.7-13.5-36.3-3.7-52.6a45.7 45.7 0 0 1 84.3 16.8 53.4 53.4 0 0 1 .5 6.9c0 3.2 5 3.2 5 0a51 51 0 0 0-33.5-47.7c-19.8-7.2-43-.9-56.3 15.5a50.9 50.9 0 0 0-11.4 28.4 49.8 49.8 0 0 0 7.2 30.1A50.6 50.6 0 0 0 178 98.9a51.6 51.6 0 0 0 .7-7.9c0-3.2-5-3.2-5 0z"/></svg>