<svg xmlns="http://www.w3.org/2000/svg" width="3.6in" height="3.6in" viewBox="0 0 256 256"><path d="M254.2 79.4l-10.7-31.8a30.5 30.5 0 0 0-1.7-5.1c-.1-.2-.1-.8 0 .5a2.8 2.8 0 0 0-.1-.9l-.3-1.6a33.6 33.6 0 0 0-8.6-15.4 36.3 36.3 0 0 0-11.3-7.6 80.9 80.9 0 0 0-8.3-2.8l-17.7-5.4-13.9-4.2c-4-1.3-7.9-3-12-3.8a35.2 35.2 0 0 0-14.1-.3 29.4 29.4 0 0 0-14.6 7.6l-2.4 2.3-8 7.8-25.2 25.1L73.1 76l-32.5 32.6-26.3 26.5L.8 148.7l-.6.6c-.7.7-1.1 2.2-.4 3a60.8 60.8 0 0 0 3.9 4.7l6.6 6.5L33.7 187l29.4 29.4 25.7 25.7c4.2 4.2 8.3 8.5 12.6 12.6.1 0 .1.1.2.2a2.6 2.6 0 0 0 3.5 0l4.7-4.7 12.7-12.7 18.4-18.4 21.9-21.9L186 174l22.4-22.4 19.3-19.3 14-14 6.5-6.5a28.7 28.7 0 0 0 8.3-20.1 32.4 32.4 0 0 0-2.3-12.3 2.6 2.6 0 0 0-3.1-1.8 2.5 2.5 0 0 0-1.7 3.1 29.3 29.3 0 0 1 2.1 12 24.4 24.4 0 0 1-.7 4.6l-.6 2-.3 1-.4.8a19.6 19.6 0 0 1-1.7 3.2l-.8 1.3-.4.5c-.4.6.2-.2-.1.2a12.9 12.9 0 0 1-1.6 1.7l-4.8 4.9-12.6 12.6-18.3 18.2-21.8 21.8-23.1 23.2-22.3 22.2-19.3 19.3-14.1 14.1c-2.2 2.2-4.6 4.4-6.7 6.7l-.3.3h3.5L94.8 241l-24.5-24.5-29.4-29.4-24.7-24.7-7.7-7.7-2.1-2.1c-.1-.1-.6-.8-.8-.8s.5.7.3.3l-.6-.8-1.2-1.5-.4 3 9.3-9.3 23.4-23.6 31.4-31.5c10.8-10.9 21.7-21.7 32.6-32.6L128 28.2c5.4-5.3 10.6-10.6 16.1-15.8a25.7 25.7 0 0 1 11.4-6.3 29.1 29.1 0 0 1 12.8 0c4.1.8 7.9 2.6 11.9 3.8l4.3 1.3 19.4 5.9 7.8 2.4a60.3 60.3 0 0 1 7.2 2.3 30.5 30.5 0 0 1 10.4 6.9 26.6 26.6 0 0 1 5.5 7.9l.4.9c0 .1.1.3.1.4a8.7 8.7 0 0 1 .7 1.7 25 25 0 0 1 .7 2.6c.1.4 0 1 .2 1.3s-.1-.8-.1-.5a1.3 1.3 0 0 1 .1.6c.1.2.1.3.2.4 1.5 5 3.3 9.9 4.9 14.8l6.3 18.6 1.1 3.3c1 3 5.8 1.7 4.8-1.3z"/><path d="M206.8 57.9a9.9 9.9 0 0 1-9.1-6.3 10 10 0 0 1 3.1-11.1 9.7 9.7 0 1 1 6 17.4c-3.2 0-3.2 5 0 5a14.8 14.8 0 0 0 13.8-9.7 14.6 14.6 0 0 0-4.3-16.3A14.7 14.7 0 0 0 192.4 51a14.8 14.8 0 0 0 14.4 11.9c3.2 0 3.2-5 0-5z"/></svg>