<?xml version="1.0" encoding="utf-8"?>
<!-- Generator: Adobe Illustrator 24.0.2, SVG Export Plug-In . SVG Version: 6.00 Build 0)  -->
<svg version="1.1" id="Layer_1" xmlns="http://www.w3.org/2000/svg" xmlns:xlink="http://www.w3.org/1999/xlink" x="0px" y="0px"
	 viewBox="0 0 1920 1080" style="enable-background:new 0 0 1920 1080;" xml:space="preserve">
<style type="text/css">
	.st0{opacity:0.4;}
	.st1{fill:#FFFFFF;}
	.st2{fill:#707071;}
	.st3{fill:none;stroke:#FFFFFF;}
</style>
<rect x="-1.5" width="1923" height="1080"/>
<title>Banner</title>
<g id="Path_9" class="st0">
	<path class="st1" d="M1919,965.6H1V114.4h1918V965.6z"/>
	<path class="st2" d="M3.6,116.9v846.2h1912.8V116.9H3.6 M-1.5,111.8h1923v856.4H-1.5V111.8z"/>
</g>
<g id="Group_6">
	<g id="Style">
		<g>
			<path class="st1" d="M601.6,494.8c-7.5,0-13.6-1.6-18.2-4.7c-4.4-3.1-7.9-7.2-10.2-12c-2.3-4.8-3.5-11.4-3.5-19.8
				c0-9.1,1.5-18.2,4.5-26.8c1.4-4.1,3.4-8,5.9-11.5c2.3-2.9,4.9-4.4,8-4.4s4.5,1.2,4.5,3.8c-0.1,0.9-0.3,1.8-0.7,2.7
				c-1.4,3.7-2.6,7.5-3.5,11.3c-1.2,4.4-1.8,10.9-1.8,19.5c0,13.3,5.2,20,15.4,20c13.6,0,25.4-4.3,35.3-12.8
				c8.6-7.4,15.1-17,18.7-27.8c1.7-4.7,2.7-9.6,2.8-14.6c0-8.8-2.3-18.1-7-27.8s-10.1-19.4-16.1-29.1c-5-7.8-9.6-16-13.8-24.3
				c-3.6-7.1-5.4-13.7-5.4-19.8c0-14.3,4-28.4,11.4-40.6c7.1-12.2,16.3-23.1,27.3-32c10.5-8.5,20.6-12.7,30.3-12.7
				c4.2,0,8.2,1.7,11.2,4.6c3.8,3.4,7.1,7.4,9.5,11.9c2.8,5.2,4.3,9.3,4.3,12.2s-1.6,3.9-4.8,3.9s-4.6-1.2-8.2-3.5s-6.6-3.5-9.1-3.5
				c-6.1,0-12.9,2.8-20.5,8.5c-7.8,5.9-14.5,13-19.8,21.1c-5.6,8.2-8.5,17.8-8.5,27.7c0,5.9,1.7,12.4,5,19.5
				c3.7,7.7,7.9,15.2,12.5,22.4c6,9.7,11.5,19.7,16.3,30.1c4.6,9.6,7,20,7.1,30.6c0,8.9-2.2,18.2-6.7,28.1
				c-3.9,9.1-9.4,17.5-16.3,24.7c-7,7.6-15.4,13.8-24.7,18.2C623.1,492.6,612.4,494.9,601.6,494.8z"/>
			<path class="st1" d="M714.9,470.5c-5.7,0-9.8-2.3-12.3-6.8s-3.7-10.1-3.7-16.9s1.4-18.2,4.4-30.1c4.4-17.7,13.1-44.6,26-80.5
				c5.7-16,10.8-31.2,15.1-45.6c-18.8,0.6-33.6,1.4-44.2,2.6s-16.3,1.5-19.9,1.5s-4.3-1.5-4.3-4.6c0.1-2.8,0.9-5.5,2.4-7.9
				c1.4-2.7,4.2-4.3,7.2-4.1l62.2,1.4c1.6-5.5,3.1-10.8,4.5-16c7.1-27,12.1-42,15-44.9s4.1-2.5,7.5-2.5c3.7,0,7.3,1.1,10.5,3
				c2.9,1.7,4.4,4,4.4,6.8s-3.9,11.9-11.6,29.2c-3.4,7.5-7,15.8-10.6,24.9l30.6,0.4l15.8-0.2c5.9-0.1,11.8,0.2,17.6,0.8
				c4.1,0.6,6.1,2.7,6.1,6.5c-0.1,1.8-0.5,3.5-1.2,5.2c-2.9,7.5-5.3,11.3-7.1,11.3s-1.7-0.7-1.7-2.3c0.1-2.2-0.1-4.5-0.7-6.6
				c-1.2-3.3-11-5-29.5-5c-12.2,0-23.5,0.1-33.8,0.3c-11.2,29.3-23.1,65.4-35.7,108.1c-7,23.7-10.5,38.5-10.5,44.5s1.7,9.4,5.2,9.4
				c7.4,0,18.4-9.3,33-27.8c9.9-12.4,17.1-23.2,21.7-32.4c1.7-3.4,3.3-5,4.7-5s3.7,1.9,3.7,5.7s-2,7.7-5.9,15.1
				c-7.4,14-16.5,27.1-27.1,38.9C739,462.6,726.4,470.5,714.9,470.5z"/>
			<path class="st1" d="M767.4,586.2c-19.8,0-29.7-10.9-29.7-32.8c0-31.9,31.1-63.4,93.3-94.7c3.6-16.2,7.3-34.7,11.3-55.3
				c-4.9,10.5-9.5,19.4-13.9,26.8c-12.8,20.9-26.5,31.4-41,31.3c-10.9,0-16.3-7.7-16.3-23.1c0-13.4,1.6-26.7,4.6-39.7
				c3.8-17,9-35.9,15.4-56.8c1.3-4.4,5.7-6.6,13.1-6.6s12.3,2.4,12.3,7.4c0,2.2-1.5,7-4.6,14.2s-7.2,17.9-11.1,28
				c-7.6,20.2-11.4,36.8-11.4,49.7c0,6.3,1.8,9.4,5.3,9.4c6.5,0,14.8-7.6,24.9-22.9c7.6-11.5,15.3-25.7,23.3-42.6
				c6.7-14.2,11.6-26.4,14.7-36.6c1.4-4.4,5.9-6.6,13.2-6.6s12.2,2.4,12.2,7.3c0,2.8-2,9.1-5.9,18.9c-6.3,15.9-12.7,36.8-19,62.9
				c-1.7,7.2-3.5,14.5-5.5,22c4.8-3,9.5-6,14.1-9.2c11.8-8.3,22.4-19.8,31.9-34.6c2.5-4,4.5-7.5,6.1-10.7s3.1-4.7,4.5-4.7
				s3.7,1.9,3.7,5.8s-1.9,8-5.8,15c-8.8,15.8-19.3,28.1-31.5,37c-8.7,6.3-17.8,12.1-27.2,17.4c-5,18-10.1,34.3-15.5,49
				c-11.5,31.1-24.6,52.6-39.3,64.7C785.4,582.8,776.7,586.2,767.4,586.2z M763.2,568.9c12.4,0,23.5-6.7,33.5-20
				c12.1-16.2,22.4-41.4,30.9-75.6c-50.6,26.8-75.9,53.5-75.9,80.1C751.7,563.7,755.6,568.9,763.2,568.9z"/>
			<path class="st1" d="M909,470.5c-5.8,0-9.9-2.3-12.4-6.8s-3.7-10.1-3.7-16.9s1.5-18.2,4.4-30.1c4.5-17.7,13.1-44.5,26-80.5
				c9.6-26.8,17.3-51,23.1-72.7c7.1-27,12-42,14.9-44.9s4.2-2.5,7.6-2.5c3.7,0,7.3,1.1,10.4,3c3,1.7,4.5,4,4.5,6.8
				s-4,11.9-11.8,29.2c-15.1,33.6-31.8,81.4-50,143.4c-7.1,23.7-10.6,38.5-10.6,44.5s1.8,9.4,5.3,9.4c7.3,0,18.3-9.3,33-27.8
				c10.3-12.9,17.5-23.7,21.7-32.4c1.7-3.4,3.2-5,4.6-5s3.7,1.9,3.7,5.7s-1.9,7.7-5.8,15.1c-7.5,14-16.6,27.1-27.1,39.1
				C933,462.7,920.4,470.5,909,470.5z"/>
			<path class="st1" d="M986.7,472.9c-20.1,0-30.2-10.7-30.1-32c0.1-8.9,1.7-17.7,4.6-26.1c3.1-9.8,7.2-19.2,12.3-28.2
				c5-9.1,10.8-17.6,17.5-25.5c5.9-7.3,12.9-13.6,20.7-18.8c7.3-4.8,14.6-7.2,21.7-7.2s13.2,2.9,18.1,8.5s7.3,12.6,7.3,20.7
				c0,10.8-6.4,20.6-19.3,29.3s-31,13.2-54.7,13.6c-4.9,11-7.4,20.5-7.4,28.4c0,14.3,5.9,21.5,17.8,21.5c14.6,0,31.2-8.2,49.7-24.6
				c14.6-12.7,25.3-26.2,32.3-40.5c1.6-3.3,3.2-5,4.7-5s3.7,2,3.7,5.9c0,1.2-0.8,3.4-2.2,6.4c-6.1,12.7-14.2,24.3-23.9,34.5
				c-10,10.7-21.4,19.9-33.9,27.5C1013,469.1,1000.1,472.9,986.7,472.9z M991.1,395c15.3-0.4,28.4-3.7,39.4-9.9
				c11-6.2,16.5-13.2,16.5-21.5c-0.1-2.8-1.7-5.3-4.2-6.6c-2-1-4.2-1.4-6.4-1.3c-6.2,0-12.7,2.7-19.7,8.2
				C1007.3,371.6,998.7,382,991.1,395L991.1,395z"/>
		</g>
		<g>
			<path class="st3" d="M601.6,494.8c-7.5,0-13.6-1.6-18.2-4.7c-4.4-3.1-7.9-7.2-10.2-12c-2.3-4.8-3.5-11.4-3.5-19.8
				c0-9.1,1.5-18.2,4.5-26.8c1.4-4.1,3.4-8,5.9-11.5c2.3-2.9,4.9-4.4,8-4.4s4.5,1.2,4.5,3.8c-0.1,0.9-0.3,1.8-0.7,2.7
				c-1.4,3.7-2.6,7.5-3.5,11.3c-1.2,4.4-1.8,10.9-1.8,19.5c0,13.3,5.2,20,15.4,20c13.6,0,25.4-4.3,35.3-12.8
				c8.6-7.4,15.1-17,18.7-27.8c1.7-4.7,2.7-9.6,2.8-14.6c0-8.8-2.3-18.1-7-27.8s-10.1-19.4-16.1-29.1c-5-7.8-9.6-16-13.8-24.3
				c-3.6-7.1-5.4-13.7-5.4-19.8c0-14.3,4-28.4,11.4-40.6c7.1-12.2,16.3-23.1,27.3-32c10.5-8.5,20.6-12.7,30.3-12.7
				c4.2,0,8.2,1.7,11.2,4.6c3.8,3.4,7.1,7.4,9.5,11.9c2.8,5.2,4.3,9.3,4.3,12.2s-1.6,3.9-4.8,3.9s-4.6-1.2-8.2-3.5s-6.6-3.5-9.1-3.5
				c-6.1,0-12.9,2.8-20.5,8.5c-7.8,5.9-14.5,13-19.8,21.1c-5.6,8.2-8.5,17.8-8.5,27.7c0,5.9,1.7,12.4,5,19.5
				c3.7,7.7,7.9,15.2,12.5,22.4c6,9.7,11.5,19.7,16.3,30.1c4.6,9.6,7,20,7.1,30.6c0,8.9-2.2,18.2-6.7,28.1
				c-3.9,9.1-9.4,17.5-16.3,24.7c-7,7.6-15.4,13.8-24.7,18.2C623.1,492.6,612.4,494.9,601.6,494.8z"/>
			<path class="st3" d="M714.9,470.5c-5.7,0-9.8-2.3-12.3-6.8s-3.7-10.1-3.7-16.9s1.4-18.2,4.4-30.1c4.4-17.7,13.1-44.6,26-80.5
				c5.7-16,10.8-31.2,15.1-45.6c-18.8,0.6-33.6,1.4-44.2,2.6s-16.3,1.5-19.9,1.5s-4.3-1.5-4.3-4.6c0.1-2.8,0.9-5.5,2.4-7.9
				c1.4-2.7,4.2-4.3,7.2-4.1l62.2,1.4c1.6-5.5,3.1-10.8,4.5-16c7.1-27,12.1-42,15-44.9s4.1-2.5,7.5-2.5c3.7,0,7.3,1.1,10.5,3
				c2.9,1.7,4.4,4,4.4,6.8s-3.9,11.9-11.6,29.2c-3.4,7.5-7,15.8-10.6,24.9l30.6,0.4l15.8-0.2c5.9-0.1,11.8,0.2,17.6,0.8
				c4.1,0.6,6.1,2.7,6.1,6.5c-0.1,1.8-0.5,3.5-1.2,5.2c-2.9,7.5-5.3,11.3-7.1,11.3s-1.7-0.7-1.7-2.3c0.1-2.2-0.1-4.5-0.7-6.6
				c-1.2-3.3-11-5-29.5-5c-12.2,0-23.5,0.1-33.8,0.3c-11.2,29.3-23.1,65.4-35.7,108.1c-7,23.7-10.5,38.5-10.5,44.5s1.7,9.4,5.2,9.4
				c7.4,0,18.4-9.3,33-27.8c9.9-12.4,17.1-23.2,21.7-32.4c1.7-3.4,3.3-5,4.7-5s3.7,1.9,3.7,5.7s-2,7.7-5.9,15.1
				c-7.4,14-16.5,27.1-27.1,38.9C739,462.6,726.4,470.5,714.9,470.5z"/>
			<path class="st3" d="M767.4,586.2c-19.8,0-29.7-10.9-29.7-32.8c0-31.9,31.1-63.4,93.3-94.7c3.6-16.2,7.3-34.7,11.3-55.3
				c-4.9,10.5-9.5,19.4-13.9,26.8c-12.8,20.9-26.5,31.4-41,31.3c-10.9,0-16.3-7.7-16.3-23.1c0-13.4,1.6-26.7,4.6-39.7
				c3.8-17,9-35.9,15.4-56.8c1.3-4.4,5.7-6.6,13.1-6.6s12.3,2.4,12.3,7.4c0,2.2-1.5,7-4.6,14.2s-7.2,17.9-11.1,28
				c-7.6,20.2-11.4,36.8-11.4,49.7c0,6.3,1.8,9.4,5.3,9.4c6.5,0,14.8-7.6,24.9-22.9c7.6-11.5,15.3-25.7,23.3-42.6
				c6.7-14.2,11.6-26.4,14.7-36.6c1.4-4.4,5.9-6.6,13.2-6.6s12.2,2.4,12.2,7.3c0,2.8-2,9.1-5.9,18.9c-6.3,15.9-12.7,36.8-19,62.9
				c-1.7,7.2-3.5,14.5-5.5,22c4.8-3,9.5-6,14.1-9.2c11.8-8.3,22.4-19.8,31.9-34.6c2.5-4,4.5-7.5,6.1-10.7s3.1-4.7,4.5-4.7
				s3.7,1.9,3.7,5.8s-1.9,8-5.8,15c-8.8,15.8-19.3,28.1-31.5,37c-8.7,6.3-17.8,12.1-27.2,17.4c-5,18-10.1,34.3-15.5,49
				c-11.5,31.1-24.6,52.6-39.3,64.7C785.4,582.8,776.7,586.2,767.4,586.2z M763.2,568.9c12.4,0,23.5-6.7,33.5-20
				c12.1-16.2,22.4-41.4,30.9-75.6c-50.6,26.8-75.9,53.5-75.9,80.1C751.7,563.7,755.6,568.9,763.2,568.9z"/>
			<path class="st3" d="M909,470.5c-5.8,0-9.9-2.3-12.4-6.8s-3.7-10.1-3.7-16.9s1.5-18.2,4.4-30.1c4.5-17.7,13.1-44.5,26-80.5
				c9.6-26.8,17.3-51,23.1-72.7c7.1-27,12-42,14.9-44.9s4.2-2.5,7.6-2.5c3.7,0,7.3,1.1,10.4,3c3,1.7,4.5,4,4.5,6.8
				s-4,11.9-11.8,29.2c-15.1,33.6-31.8,81.4-50,143.4c-7.1,23.7-10.6,38.5-10.6,44.5s1.8,9.4,5.3,9.4c7.3,0,18.3-9.3,33-27.8
				c10.3-12.9,17.5-23.7,21.7-32.4c1.7-3.4,3.2-5,4.6-5s3.7,1.9,3.7,5.7s-1.9,7.7-5.8,15.1c-7.5,14-16.6,27.1-27.1,39.1
				C933,462.7,920.4,470.5,909,470.5z"/>
			<path class="st3" d="M986.7,472.9c-20.1,0-30.2-10.7-30.1-32c0.1-8.9,1.7-17.7,4.6-26.1c3.1-9.8,7.2-19.2,12.3-28.2
				c5-9.1,10.8-17.6,17.5-25.5c5.9-7.3,12.9-13.6,20.7-18.8c7.3-4.8,14.6-7.2,21.7-7.2s13.2,2.9,18.1,8.5s7.3,12.6,7.3,20.7
				c0,10.8-6.4,20.6-19.3,29.3s-31,13.2-54.7,13.6c-4.9,11-7.4,20.5-7.4,28.4c0,14.3,5.9,21.5,17.8,21.5c14.6,0,31.2-8.2,49.7-24.6
				c14.6-12.7,25.3-26.2,32.3-40.5c1.6-3.3,3.2-5,4.7-5s3.7,2,3.7,5.9c0,1.2-0.8,3.4-2.2,6.4c-6.1,12.7-14.2,24.3-23.9,34.5
				c-10,10.7-21.4,19.9-33.9,27.5C1013,469.1,1000.1,472.9,986.7,472.9z M991.1,395c15.3-0.4,28.4-3.7,39.4-9.9
				c11-6.2,16.5-13.2,16.5-21.5c-0.1-2.8-1.7-5.3-4.2-6.6c-2-1-4.2-1.4-6.4-1.3c-6.2,0-12.7,2.7-19.7,8.2
				C1007.3,371.6,998.7,382,991.1,395L991.1,395z"/>
		</g>
	</g>
	<g id="Kyle">
		<g>
			<path class="st1" d="M971.1,730.2c-15.8,0-29.5-8.7-40.9-26.1c-9.1-13.8-17.3-30.8-24.4-51.1c-8.7,13.1-16.5,26.8-23.2,41
				c-1.6,3.3-2.9,6.6-4,10.1c-2.3,7.9-3.5,19.3-3.5,34.2c0,6.8-3.7,10.2-11.2,10.2s-9.9-3.9-9.9-11.5c0-11.9,4.8-34.6,14.2-68.2
				c6.5-22.8,13.4-45.1,20.7-67c7.8-23,14.8-46,21.1-69c6-21.5,10.2-33.4,12.6-35.7c2.4-2.3,5.1-3.2,8.1-2.7c3.5,0,7,0.9,10,2.7
				c3.1,1.8,4.6,4,4.6,6.6s-2.4,7.5-7.2,17.5c-3.4,7.1-6.6,14.5-9.6,22.1c-15.7,40.6-27.6,75.3-35.7,104l14.2-21.6
				c18.5-28.7,38.9-56.2,60.9-82.4c22.4-26.4,38.3-39.6,47.6-39.6c4.5,0,8.8,1.8,12.8,5.2c4,3.4,7.6,8.6,10.9,15.3
				s4.8,11.3,4.8,13.6c0,5-2.2,7.6-6.7,7.6c-2.9,0-5.2-1.6-6.9-4.6c-4.2-7.7-7.8-11.5-11-11.5s-10.7,4.3-20.9,13s-21.5,20-34,34.2
				c-15,17.1-28.9,34.5-41.9,52.2c7.8,24.9,15.7,44.6,23.7,59.1c8.7,16,18.5,24,29.4,24c24.6,0,46.2-18.8,64.7-56.5
				c1.6-3.3,3.1-5,4.6-5s3.6,1.9,3.6,5.8s-1.9,8-5.7,15C1021.8,710.5,997.8,730.2,971.1,730.2z"/>
			<path class="st1" d="M1032.1,849.3c-19.8,0-29.7-10.9-29.7-32.8c0-31.8,31.1-63.4,93.3-94.7c3.6-16.2,7.4-34.6,11.3-55.3
				c-4.2,9.2-8.8,18.1-13.9,26.8c-12.8,20.9-26.5,31.4-41,31.4c-10.9,0-16.3-7.7-16.3-23.2c0-13.4,1.6-26.7,4.6-39.7
				c3.8-17,9-35.9,15.4-56.8c1.3-4.4,5.7-6.6,13.1-6.6s12.3,2.5,12.3,7.4c0,2.3-1.5,7-4.6,14.2s-7.2,17.9-11.1,28
				c-7.6,20.2-11.3,36.8-11.3,49.8c0,6.2,1.7,9.3,5.2,9.3c6.5,0,14.8-7.6,24.9-22.9c7.6-11.5,15.3-25.7,23.3-42.6
				c6.7-14.2,11.6-26.4,14.7-36.6c1.5-4.4,5.9-6.6,13.3-6.6s12.1,2.4,12.1,7.3c0,2.8-2,9.1-5.9,18.9c-6.2,16-12.6,36.9-19,62.9
				c-1.7,7.2-3.5,14.5-5.5,22c4.8-3,9.5-6,14.1-9.2c11.8-8.3,22.4-19.8,31.9-34.6c2.2-3.4,4.3-7,6.1-10.7c1.6-3.1,3.1-4.7,4.6-4.7
				s3.6,1.9,3.6,5.8s-1.9,8-5.8,15c-8.7,15.8-19.2,28.1-31.5,37.1c-8.7,6.3-17.8,12-27.2,17.3c-4.9,18-10,34.4-15.5,49.1
				c-11.5,31.1-24.5,52.6-39.2,64.6C1050.1,846,1041.4,849.3,1032.1,849.3z M1027.9,832c12.4,0,23.6-6.6,33.6-20
				c12-16.2,22.3-41.4,30.8-75.6c-50.6,26.8-75.9,53.5-75.9,80.1C1016.4,826.8,1020.3,832,1027.9,832z"/>
			<path class="st1" d="M1173.7,733.6c-5.8,0-9.9-2.3-12.4-6.8s-3.7-10.1-3.7-16.9s1.5-18.2,4.5-30.1c4.4-17.7,13-44.5,25.9-80.5
				c9.6-26.8,17.3-51,23.1-72.7c7.1-27,12-41.9,14.9-44.9s4.2-2.5,7.6-2.5c3.7,0,7.3,1.1,10.4,3c3,1.7,4.5,4,4.5,6.8
				s-4,11.9-11.8,29.2c-15.1,33.6-31.8,81.4-50,143.5c-7.1,23.6-10.6,38.4-10.6,44.4s1.8,9.4,5.3,9.4c7.3,0,18.3-9.3,33-27.7
				c10.3-12.9,17.5-23.8,21.8-32.5c1.6-3.3,3.1-5,4.6-5s3.6,1.9,3.6,5.7s-1.9,7.7-5.8,15.1c-7.4,14-16.5,27.2-27,39.1
				C1197.8,725.8,1185.1,733.6,1173.7,733.6z"/>
			<path class="st1" d="M1251.4,736c-20.1,0-30.2-10.7-30.1-32c0.1-8.9,1.7-17.7,4.6-26.1c6.5-19.6,16.6-37.8,29.8-53.7
				c6-7.3,13-13.6,20.8-18.8c7.3-4.8,14.5-7.2,21.6-7.2c7.2,0,13.2,2.9,18.1,8.6s7.3,12.5,7.3,20.6c0,10.9-6.4,20.6-19.3,29.3
				s-31,13.2-54.7,13.6c-4.9,11-7.4,20.5-7.4,28.4c0,14.3,6,21.5,17.9,21.5c14.6,0,31.1-8.2,49.6-24.6
				c14.6-12.7,25.4-26.2,32.3-40.4c1.6-3.4,3.2-5,4.7-5s3.7,1.9,3.7,5.8c0,1.2-0.7,3.4-2.2,6.5c-6.1,12.6-14.2,24.2-23.9,34.4
				c-10,10.7-21.4,20-33.9,27.6C1277.7,732.2,1264.8,736,1251.4,736z M1255.8,658.1c15.3-0.4,28.5-3.7,39.5-9.8s16.4-13.3,16.4-21.5
				c0-1.2-0.3-2.4-0.9-3.5c-0.7-1.3-1.9-2.5-3.2-3.2c-2-1-4.3-1.4-6.5-1.3c-6.2,0-12.7,2.7-19.6,8.2
				C1272,634.7,1263.4,645.1,1255.8,658.1z"/>
		</g>
		<g>
			<path class="st3" d="M971.1,730.2c-15.8,0-29.5-8.7-40.9-26.1c-9.1-13.8-17.3-30.8-24.4-51.1c-8.7,13.1-16.5,26.8-23.2,41
				c-1.6,3.3-2.9,6.6-4,10.1c-2.3,7.9-3.5,19.3-3.5,34.2c0,6.8-3.7,10.2-11.2,10.2s-9.9-3.9-9.9-11.5c0-11.9,4.8-34.6,14.2-68.2
				c6.5-22.8,13.4-45.1,20.7-67c7.8-23,14.8-46,21.1-69c6-21.5,10.2-33.4,12.6-35.7c2.4-2.3,5.1-3.2,8.1-2.7c3.5,0,7,0.9,10,2.7
				c3.1,1.8,4.6,4,4.6,6.6s-2.4,7.5-7.2,17.5c-3.4,7.1-6.6,14.5-9.6,22.1c-15.7,40.6-27.6,75.3-35.7,104l14.2-21.6
				c18.5-28.7,38.9-56.2,60.9-82.4c22.4-26.4,38.3-39.6,47.6-39.6c4.5,0,8.8,1.8,12.8,5.2c4,3.4,7.6,8.6,10.9,15.3
				s4.8,11.3,4.8,13.6c0,5-2.2,7.6-6.7,7.6c-2.9,0-5.2-1.6-6.9-4.6c-4.2-7.7-7.8-11.5-11-11.5s-10.7,4.3-20.9,13s-21.5,20-34,34.2
				c-15,17.1-28.9,34.5-41.9,52.2c7.8,24.9,15.7,44.6,23.7,59.1c8.7,16,18.5,24,29.4,24c24.6,0,46.2-18.8,64.7-56.5
				c1.6-3.3,3.1-5,4.6-5s3.6,1.9,3.6,5.8s-1.9,8-5.7,15C1021.8,710.5,997.8,730.2,971.1,730.2z"/>
			<path class="st3" d="M1032.1,849.3c-19.8,0-29.7-10.9-29.7-32.8c0-31.8,31.1-63.4,93.3-94.7c3.6-16.2,7.4-34.6,11.3-55.3
				c-4.2,9.2-8.8,18.1-13.9,26.8c-12.8,20.9-26.5,31.4-41,31.4c-10.9,0-16.3-7.7-16.3-23.2c0-13.4,1.6-26.7,4.6-39.7
				c3.8-17,9-35.9,15.4-56.8c1.3-4.4,5.7-6.6,13.1-6.6s12.3,2.5,12.3,7.4c0,2.3-1.5,7-4.6,14.2s-7.2,17.9-11.1,28
				c-7.6,20.2-11.3,36.8-11.3,49.8c0,6.2,1.7,9.3,5.2,9.3c6.5,0,14.8-7.6,24.9-22.9c7.6-11.5,15.3-25.7,23.3-42.6
				c6.7-14.2,11.6-26.4,14.7-36.6c1.5-4.4,5.9-6.6,13.3-6.6s12.1,2.4,12.1,7.3c0,2.8-2,9.1-5.9,18.9c-6.2,16-12.6,36.9-19,62.9
				c-1.7,7.2-3.5,14.5-5.5,22c4.8-3,9.5-6,14.1-9.2c11.8-8.3,22.4-19.8,31.9-34.6c2.2-3.4,4.3-7,6.1-10.7c1.6-3.1,3.1-4.7,4.6-4.7
				s3.6,1.9,3.6,5.8s-1.9,8-5.8,15c-8.7,15.8-19.2,28.1-31.5,37.1c-8.7,6.3-17.8,12-27.2,17.3c-4.9,18-10,34.4-15.5,49.1
				c-11.5,31.1-24.5,52.6-39.2,64.6C1050.1,846,1041.4,849.3,1032.1,849.3z M1027.9,832c12.4,0,23.6-6.6,33.6-20
				c12-16.2,22.3-41.4,30.8-75.6c-50.6,26.8-75.9,53.5-75.9,80.1C1016.4,826.8,1020.3,832,1027.9,832z"/>
			<path class="st3" d="M1173.7,733.6c-5.8,0-9.9-2.3-12.4-6.8s-3.7-10.1-3.7-16.9s1.5-18.2,4.5-30.1c4.4-17.7,13-44.5,25.9-80.5
				c9.6-26.8,17.3-51,23.1-72.7c7.1-27,12-41.9,14.9-44.9s4.2-2.5,7.6-2.5c3.7,0,7.3,1.1,10.4,3c3,1.7,4.5,4,4.5,6.8
				s-4,11.9-11.8,29.2c-15.1,33.6-31.8,81.4-50,143.5c-7.1,23.6-10.6,38.4-10.6,44.4s1.8,9.4,5.3,9.4c7.3,0,18.3-9.3,33-27.7
				c10.3-12.9,17.5-23.8,21.8-32.5c1.6-3.3,3.1-5,4.6-5s3.6,1.9,3.6,5.7s-1.9,7.7-5.8,15.1c-7.4,14-16.5,27.2-27,39.1
				C1197.8,725.8,1185.1,733.6,1173.7,733.6z"/>
			<path class="st3" d="M1251.4,736c-20.1,0-30.2-10.7-30.1-32c0.1-8.9,1.7-17.7,4.6-26.1c6.5-19.6,16.6-37.8,29.8-53.7
				c6-7.3,13-13.6,20.8-18.8c7.3-4.8,14.5-7.2,21.6-7.2c7.2,0,13.2,2.9,18.1,8.6s7.3,12.5,7.3,20.6c0,10.9-6.4,20.6-19.3,29.3
				s-31,13.2-54.7,13.6c-4.9,11-7.4,20.5-7.4,28.4c0,14.3,6,21.5,17.9,21.5c14.6,0,31.1-8.2,49.6-24.6
				c14.6-12.7,25.4-26.2,32.3-40.4c1.6-3.4,3.2-5,4.7-5s3.7,1.9,3.7,5.8c0,1.2-0.7,3.4-2.2,6.5c-6.1,12.6-14.2,24.2-23.9,34.4
				c-10,10.7-21.4,20-33.9,27.6C1277.7,732.2,1264.8,736,1251.4,736z M1255.8,658.1c15.3-0.4,28.5-3.7,39.5-9.8s16.4-13.3,16.4-21.5
				c0-1.2-0.3-2.4-0.9-3.5c-0.7-1.3-1.9-2.5-3.2-3.2c-2-1-4.3-1.4-6.5-1.3c-6.2,0-12.7,2.7-19.6,8.2
				C1272,634.7,1263.4,645.1,1255.8,658.1z"/>
		</g>
	</g>
	<g id="WITH">
		<g>
			<path class="st1" d="M1159.5,452.4h-6.2l-4.4-47.7l-22,47.7h-6.3l-4.4-53h5.3l3.2,48l21.5-47.3h6.8l4.4,47.3l20.8-48h5.3
				L1159.5,452.4z"/>
			<path class="st1" d="M1181.3,452.4l9.4-53h4.8l-9.4,53H1181.3z"/>
			<path class="st1" d="M1226.9,403.3l-8.7,49.1h-4.7l8.7-49.1h-19.6l0.8-3.9h43.6l-0.7,3.9H1226.9z"/>
			<path class="st1" d="M1285.2,452.4h-4.8l4.2-24h-31l-4.3,24h-4.7l9.3-53h4.8l-4.4,25h31.1l4.4-25h4.7L1285.2,452.4z"/>
		</g>
		<g>
			<path class="st3" d="M1159.5,452.4h-6.2l-4.4-47.7l-22,47.7h-6.3l-4.4-53h5.3l3.2,48l21.5-47.3h6.8l4.4,47.3l20.8-48h5.3
				L1159.5,452.4z"/>
			<path class="st3" d="M1181.3,452.4l9.4-53h4.8l-9.4,53H1181.3z"/>
			<path class="st3" d="M1226.9,403.3l-8.7,49.1h-4.7l8.7-49.1h-19.6l0.8-3.9h43.6l-0.7,3.9H1226.9z"/>
			<path class="st3" d="M1285.2,452.4h-4.8l4.2-24h-31l-4.3,24h-4.7l9.3-53h4.8l-4.4,25h31.1l4.4-25h4.7L1285.2,452.4z"/>
		</g>
	</g>
</g>
</svg>
