<?xml version="1.0" encoding="utf-8"?>
<!-- Generator: Adobe Illustrator 24.0.2, SVG Export Plug-In . SVG Version: 6.00 Build 0)  -->
<svg version="1.1" id="Layer_1" xmlns="http://www.w3.org/2000/svg" xmlns:xlink="http://www.w3.org/1999/xlink" x="0px" y="0px"
	 viewBox="0 0 256 256" style="enable-background:new 0 0 256 256;" xml:space="preserve">
<style type="text/css">
	.st0{fill:#030504;}
</style>
<path class="st0" d="M0.4,75.8l-0.3,69c0,0-1.5,13.4,2.1,18.5c3.6,5.1,6.3,18.2,7.5,23.8c0.3,1.1,0.4,2.3,0.4,3.4
	c-0.1,1.7,0.5,4.4,6.2,3c7.9-2,88.9-43.2,88.9-43.2s0.2,2,0.6,5.2s40,2.5,39.9-0.5l0.3-3.3c0,0,48.3,34.1,94.7,36.1
	c1.2,0.1,2.4,0.3,3.5,0.7c7.8,2.8,10.1,1.5,10-4.2c-0.1-0.7,0-1.5,0.2-2.2c3-11.7,2.3-44.4-2.3-113.1c-0.2-3,3.5-9.2-10.4-5.9
	l-0.7,0.2c-25.9,3-59.6,12.1-96.7,43.9c0,0-4-5.7-14.6-1.1c-0.7,0.4-1.6,0.5-2.4,0.4c-4.2-0.2-8.4,1.5-11.1,4.8
	c-2.5,2.9-9.8,1.5-11.9,4.7C102.9,110,78.9,77.1,0.4,75.8L0.4,75.8z"/>
</svg>
