<svg xmlns="http://www.w3.org/2000/svg"><symbol id="bag" viewBox="0 0 256 256"><path fill="#231f20" d="M181.1 246.5l-19.2.3-40.6.7-36.7.6-8.9.2a46.3 46.3 0 0 1-19.4-3.8c-8.1-3.6-15.4-9.9-18.1-18.4a22.2 22.2 0 0 1-1-8.9l1.7-21.8 2.9-37.8 3.2-42.5 2.8-36.4 1.5-19.4v-.9l-2.5 2.5h154c2.1 0 4.2.1 6.3 0h.3l-2.5-2.5.5 5.7 1.3 15.5 2 22.1 2.3 26.1 2.4 27.1 2.3 25.4 1.8 20.6 1.2 13.2a26.4 26.4 0 0 1 .2 2.8 20.1 20.1 0 0 1-1.4 8.4c-4 11-15.4 17.8-26.5 20.2a47.5 47.5 0 0 1-9.9 1c-3.2 0-3.2 5 0 5 13-.1 26.9-4.8 35.5-15 4.6-5.5 7.9-12.9 7.3-20.2l-.9-10.2-1.7-18.8-2.2-24.5-2.4-27.2-2.4-26.9-2.1-23.8-1.5-17.6c-.3-2.8-.5-5.7-.8-8.5v-.4a2.6 2.6 0 0 0-2.5-2.5H66.6c-6.5 0-13-.2-19.5 0h-.3a2.6 2.6 0 0 0-2.5 2.5l-1 13.7-2.6 33.7-3.2 42.5-3.1 40-2 26.3c-.1 1.4-.3 2.9-.3 4.4-.4 8.2 4 16.3 9.7 21.8 7.6 7.3 17.8 11.2 28.1 12.2a67.6 67.6 0 0 0 9 .2l31.7-.5 42.2-.7 27-.5h1.3c3.2-.1 3.2-5.1 0-5z"/><path fill="#231f20" d="M90.8 85.9c.4-17.5 2.2-35.5 8.3-52a62.3 62.3 0 0 1 3.8-8.4 50.6 50.6 0 0 1 4.3-7l.3-.4.6-.7 1.2-1.4 2.4-2.5 1.2-1 .6-.5.4-.3 2.5-1.6 1.3-.7.7-.3h-.2l.4-.2 2.7-.8 1.2-.3h.7c-.9.1.1 0 .3 0h4c.7.1-.5-.1.2.1h.7l2.7.7 1.3.5c.6.2-.4-.2.2 0l.8.4L136 11l1.3.8.7.5.2.2c.5.3-.3-.3 0 0l2.6 2.3 2.6 2.6 1.1 1.3.6.7.2.3.2.2a81.8 81.8 0 0 1 4.5 6.9l2.1 4.1.9 1.9.5 1.1a.8.8 0 0 0 .2.4c0 .2.1.3.2.5 6 14.5 8.6 30.4 9.4 46 .1 2.4.2 4.8.2 7.2s5 3.2 5 0c-.3-17.1-2.4-34.6-8.3-50.7-4-10.9-9.9-21.9-19.3-29-6.8-5.1-15.6-7.4-23.7-4.2-9.9 3.9-16.4 13.3-20.6 22.7-7.1 16-9.6 33.7-10.5 50.9l-.3 8.2c-.1 3.2 4.9 3.2 5 0z"/></symbol><symbol id="my-account" viewBox="0 0 256 256"><path fill="#231f20" d="M249.8 127.6a121 121 0 0 1-6 37.8 122.6 122.6 0 0 1-41.6 58.9 121 121 0 0 1-32.3 17.7 118.2 118.2 0 0 1-37.2 7.3 122.2 122.2 0 0 1-38-4.5A123.8 123.8 0 0 1 61 229.4a127.9 127.9 0 0 1-27.1-24.3 123.4 123.4 0 0 1-18.6-31.2 122.1 122.1 0 0 1 8.5-109.3A121.9 121.9 0 0 1 152.4 8.3a119.6 119.6 0 0 1 34.8 12.9 125.4 125.4 0 0 1 28.9 22.3 122.4 122.4 0 0 1 32.3 65.6 114.4 114.4 0 0 1 1.4 18.5c0 3.3 5 3.3 5 0a126.9 126.9 0 0 0-6.2-39.1 125.4 125.4 0 0 0-17.1-34.1A130.5 130.5 0 0 0 205 26.9a127.3 127.3 0 0 0-33.5-18.4 127 127 0 0 0-78.1-2.9 124.2 124.2 0 0 0-34.9 16 126.2 126.2 0 0 0-47.9 58.2 127.2 127.2 0 0 0-5.8 77.9 122.8 122.8 0 0 0 14.7 35.5 125.5 125.5 0 0 0 24.2 29.2 126.4 126.4 0 0 0 69.7 31.2 130.9 130.9 0 0 0 40-1.7 126.5 126.5 0 0 0 66.2-36.6 129 129 0 0 0 21.9-31 126.9 126.9 0 0 0 13.3-56.7c0-3.2-5-3.2-5 0z"/><path fill="#231f20" d="M45.3 217.5a77.7 77.7 0 0 1 2.1-13.4 80.2 80.2 0 0 1 4-12.6c0-.1.1-.2.1-.3s-.1.3 0 0l.3-.7.7-1.5a24.4 24.4 0 0 1 1.4-2.8 48.8 48.8 0 0 1 3.1-5.5c1.1-1.8 2.2-3.5 3.4-5.1l.9-1.2.2-.3s-.2.3 0 .1a1.8 1.8 0 0 1 .5-.7l2-2.4a75.8 75.8 0 0 1 8.5-8.5l2.3-1.9.6-.5c.1-.1.6-.5.3-.2l1.2-.9a55 55 0 0 1 5-3.4 82.4 82.4 0 0 1 10.5-5.8l2.7-1.2h.3l.7-.3 1.4-.6 5.7-2a99.9 99.9 0 0 1 11.7-2.9l2.9-.5 1.4-.2h1.1c2-.3 4-.4 6-.6a94.7 94.7 0 0 1 11.9.1l6 .6h.9l1.5.2 2.9.6a73.8 73.8 0 0 1 11.4 3.1l2.7 1 1.4.5.6.3h.3l5.3 2.5a80 80 0 0 1 10 6.3l.5.4h.2l1.2 1 2.3 1.9a56.6 56.6 0 0 1 4.3 4.2 58.2 58.2 0 0 1 4 4.5l.9 1.1c-.2-.3.1.1.2.2a1.8 1.8 0 0 0 .5.7l1.8 2.5a92.6 92.6 0 0 1 6.2 11.1l.6 1.5c.1.1.1.3.2.4l.3.8 1.2 3.2c.8 2.2 1.4 4.3 2 6.6s1.1 4.6 1.6 6.9.7 4.6 1 7.1.4 5.2.5 7.7l.8-1.7-2.1 1.9-2.6 2.3-1.7 1.3-.8.7-.5.3c-.3.3-.4.4-.1.2a133.1 133.1 0 0 1-23 14.2 116.3 116.3 0 0 1-15.8 6.5 119.7 119.7 0 0 1-18.8 4.5 109.4 109.4 0 0 1-43.7-2.1C83.7 242 66.5 232.6 51.1 221l-6.5-5.3a2.6 2.6 0 0 0-3.5 0 2.5 2.5 0 0 0 0 3.6c19.6 16.4 42.6 29.5 68 34a116.3 116.3 0 0 0 55.9-3.7 134.5 134.5 0 0 0 37.1-18.6c3.5-2.5 6.9-5.1 10.1-7.9l2.2-2.1.5-.4c1.1-1.2.8-2.7.7-4.1-.8-15.7-4.9-31.3-13.5-44.5a75.5 75.5 0 0 0-30-26.6 90.2 90.2 0 0 0-38.8-9.1 98.9 98.9 0 0 0-39.5 7.6 88.4 88.4 0 0 0-33.2 23.5 82.5 82.5 0 0 0-18.7 38.3 93 93 0 0 0-1.6 11.8 2.5 2.5 0 0 0 5 0z"/><path fill="#231f20" d="M173.7 91c-.1 18.9-12.1 36.4-29.9 42.9a45.9 45.9 0 0 1-51.2-14c-12.2-14.7-13.5-36.3-3.7-52.6a45.7 45.7 0 0 1 84.3 16.8 53.4 53.4 0 0 1 .5 6.9c0 3.2 5 3.2 5 0a51 51 0 0 0-33.5-47.7c-19.8-7.2-43-.9-56.3 15.5a50.9 50.9 0 0 0-11.4 28.4 49.8 49.8 0 0 0 7.2 30.1A50.6 50.6 0 0 0 178 98.9a51.6 51.6 0 0 0 .7-7.9c0-3.2-5-3.2-5 0z"/></symbol><symbol id="shopping" viewBox="0 0 256 256"><path d="M254.2 79.4l-10.7-31.8a30.5 30.5 0 0 0-1.7-5.1c-.1-.2-.1-.8 0 .5a2.8 2.8 0 0 0-.1-.9l-.3-1.6a33.6 33.6 0 0 0-8.6-15.4 36.3 36.3 0 0 0-11.3-7.6 80.9 80.9 0 0 0-8.3-2.8l-17.7-5.4-13.9-4.2c-4-1.3-7.9-3-12-3.8a35.2 35.2 0 0 0-14.1-.3 29.4 29.4 0 0 0-14.6 7.6l-2.4 2.3-8 7.8-25.2 25.1L73.1 76l-32.5 32.6-26.3 26.5L.8 148.7l-.6.6c-.7.7-1.1 2.2-.4 3a60.8 60.8 0 0 0 3.9 4.7l6.6 6.5L33.7 187l29.4 29.4 25.7 25.7c4.2 4.2 8.3 8.5 12.6 12.6.1 0 .1.1.2.2a2.6 2.6 0 0 0 3.5 0l4.7-4.7 12.7-12.7 18.4-18.4 21.9-21.9L186 174l22.4-22.4 19.3-19.3 14-14 6.5-6.5a28.7 28.7 0 0 0 8.3-20.1 32.4 32.4 0 0 0-2.3-12.3 2.6 2.6 0 0 0-3.1-1.8 2.5 2.5 0 0 0-1.7 3.1 29.3 29.3 0 0 1 2.1 12 24.4 24.4 0 0 1-.7 4.6l-.6 2-.3 1-.4.8a19.6 19.6 0 0 1-1.7 3.2l-.8 1.3-.4.5c-.4.6.2-.2-.1.2a12.9 12.9 0 0 1-1.6 1.7l-4.8 4.9-12.6 12.6-18.3 18.2-21.8 21.8-23.1 23.2-22.3 22.2-19.3 19.3-14.1 14.1c-2.2 2.2-4.6 4.4-6.7 6.7l-.3.3h3.5L94.8 241l-24.5-24.5-29.4-29.4-24.7-24.7-7.7-7.7-2.1-2.1c-.1-.1-.6-.8-.8-.8s.5.7.3.3l-.6-.8-1.2-1.5-.4 3 9.3-9.3 23.4-23.6 31.4-31.5c10.8-10.9 21.7-21.7 32.6-32.6L128 28.2c5.4-5.3 10.6-10.6 16.1-15.8a25.7 25.7 0 0 1 11.4-6.3 29.1 29.1 0 0 1 12.8 0c4.1.8 7.9 2.6 11.9 3.8l4.3 1.3 19.4 5.9 7.8 2.4a60.3 60.3 0 0 1 7.2 2.3 30.5 30.5 0 0 1 10.4 6.9 26.6 26.6 0 0 1 5.5 7.9l.4.9c0 .1.1.3.1.4a8.7 8.7 0 0 1 .7 1.7 25 25 0 0 1 .7 2.6c.1.4 0 1 .2 1.3s-.1-.8-.1-.5a1.3 1.3 0 0 1 .1.6c.1.2.1.3.2.4 1.5 5 3.3 9.9 4.9 14.8l6.3 18.6 1.1 3.3c1 3 5.8 1.7 4.8-1.3z"/><path d="M206.8 57.9a9.9 9.9 0 0 1-9.1-6.3 10 10 0 0 1 3.1-11.1 9.7 9.7 0 1 1 6 17.4c-3.2 0-3.2 5 0 5a14.8 14.8 0 0 0 13.8-9.7 14.6 14.6 0 0 0-4.3-16.3A14.7 14.7 0 0 0 192.4 51a14.8 14.8 0 0 0 14.4 11.9c3.2 0 3.2-5 0-5z"/></symbol><symbol id="favorites" viewBox="0 0 256 256"><path d="M129 35.3a64 64 0 0 1 7.1-6.7c-.4.4.4-.3.5-.3l1-.7 2-1.4 4-2.4a54.8 54.8 0 0 1 8.3-3.6 54 54 0 0 1 9-2.3l2.3-.4 1.1-.2c.7-.1-.5.1.2 0h.8l4.7-.4a76.9 76.9 0 0 1 9.6.1l4.7.5 4.7.7c3.2.7 6.4 1.5 9.5 2.4a81.2 81.2 0 0 1 32.9 19.8l3.4 3.6 1.4 1.8.8.9c.3.4-.4-.4.1.2l.5.7a63.1 63.1 0 0 1 5.2 8.2 59.5 59.5 0 0 1 6.3 18.5c.1.4.1.9.2 1.3a1.3 1.3 0 0 0 .1.6c-.1-.6 0 .2 0 .2l.3 2.6c.1 1.9.2 3.7.2 5.6a50.7 50.7 0 0 1-.3 5.5l-.3 2.8c-.1.6-.2 1.5-.3 2.4a92.1 92.1 0 0 1-7.9 24.1 130.4 130.4 0 0 1-7.5 13.1L229 139c-.4.6.2-.1-.2.3s-2.9 2.9-4.4 4.3l-22 21.7-30.7 30.2-28.7 28.3-16 15.7-.7.7h3.5l-12-11.5-27.3-26.2-29.1-28-18.1-17.4C31 145.3 20.7 131.7 13.9 116a99.1 99.1 0 0 1-7.1-24c-.1-.8-.1-1.4-.3-2.4s-.2-2-.2-3a48.7 48.7 0 0 1-.2-5.4c0-1.8.1-3.5.2-5.2l.3-2.4c0-.1.1-.9 0-.3s.1-.3.1-.5.1-.9.2-1.4a74.8 74.8 0 0 1 2.4-9.6l.8-2.1a4.9 4.9 0 0 0 .4-1.1.8.8 0 0 0 .2-.5c.1-.2.1-.1 0 .1s.1-.3.2-.4 1.3-2.8 2-4.2a57.5 57.5 0 0 1 5-7.8l.5-.7c-.2.2.2-.3.2-.3l.4-.5 1.6-1.8c1-1.2 2-2.3 3.1-3.4a67.2 67.2 0 0 1 14.3-11 62.1 62.1 0 0 1 8.1-4.2l1.1-.5.6-.3 2.2-.9 4.5-1.5a66.1 66.1 0 0 1 9-2.4l4.5-.8 1.1-.2h.6c-.5.1-.1 0 0 0l2.4-.3a83.3 83.3 0 0 1 18 .2h1.6l2.3.4 4.3 1a55 55 0 0 1 8.1 2.7h.5c.4.2-.5-.2 0 .1l1 .4 1.9.9c1.3.6 2.5 1.3 3.7 2a27.1 27.1 0 0 1 3.5 2.4l.8.5.3.3c-.4-.4.1 0 .2.1l1.6 1.3a51.2 51.2 0 0 1 5.6 5.8 2.5 2.5 0 0 0 3.5 0 2.5 2.5 0 0 0 0-3.6c-7.4-9-18-14.9-29.3-17.8a83 83 0 0 0-37.1-.5A85.2 85.2 0 0 0 28 28.8 68 68 0 0 0 4.9 59.4c-5.1 14-4.7 29.4-.8 43.7 5.7 21.5 18.3 40.9 34.3 56.3l12.5 12 27.8 26.7 29.4 28.2 17.3 16.7.9.8a2.6 2.6 0 0 0 3.5 0l11.6-11.5 27.1-26.7 31.6-31 24.9-24.5 6.4-6.4 1.1-1a46 46 0 0 0 3.2-4.5c1.5-2.2 3-4.5 4.4-6.8 9-14.8 15.3-31.8 14.7-49.3a66.4 66.4 0 0 0-14.2-38.9c-8.3-10.7-19.7-18.9-32-24.2a88.5 88.5 0 0 0-39.6-7.2c-13.3.9-26.1 5.2-36.6 13.4a60.9 60.9 0 0 0-6.9 6.5c-2.2 2.4 1.4 6 3.5 3.6z"/></symbol><symbol id="inspiration" viewBox="0 0 256 256"><path d="M125.8 12l3.8 7.7 9.2 18.6 11 22.3 9.6 19.3c1.5 3.1 2.8 6.3 4.5 9.2.7 1.2 1.6 1.3 2.8 1.4l5.2.8 19.3 2.8 24.6 3.6 22.1 3.2 12.2 1.8h.5l-1.1-4.2-6.2 6-14.7 14.5-17.9 17.5-15.4 15c-2.5 2.4-5 4.6-7.3 7.1s-.8 2.4-.5 3.7l.8 5.2 3.3 19.1 4.2 24.5 3.8 22.2 2.1 12.1v.6l3.7-2.9-7.7-4-18.2-9.6-22.2-11.6-19-10-9-4.8c-1.5-.7-2.5-.1-3.7.5l-4.7 2.5-17.2 9-22 11.6-19.8 10.5-10.9 5.7-.5.2 3.7 2.9 1.5-8.6 3.4-20.3 4.3-24.7 3.6-21.2c.6-3.3 1.2-6.6 1.7-10 .3-1.7-.5-2.4-1.5-3.4l-3.7-3.7-13.9-13.5-17.8-17.4-16.1-15.7L6.9 99l-.4-.4-1.1 4.2 8.4-1.3 20.5-3L59 95l21.3-3.1 6.9-1 3.2-.5c1.3-.3 1.7-1.3 2.2-2.3l2.4-4.8 8.6-17.4 11-22.3 9.9-20.1 5.4-11 .3-.5a2.6 2.6 0 0 0-.9-3.4 2.6 2.6 0 0 0-3.5.9l-3.8 7.7-9.1 18.4L102 57.9l-9.6 19.3-3.1 6.3a29.6 29.6 0 0 0-1.5 3.1.1.1 0 0 1-.1.1l1.5-1.2-8.5 1.3-20.3 2.9-24.5 3.6-21.4 3.1-7 1-3.3.5H4c-1.9.3-2.3 3-1.1 4.2l6.2 6 14.7 14.4 17.7 17.3 15.5 15 5.1 4.9a18.1 18.1 0 0 0 2.4 2.4h.1l-.7-2.4-1.4 8.4-3.5 20.4-4.2 24.4-3.6 21.3-1.8 10.3a2.5 2.5 0 0 0 3.6 2.9l7.6-4 18.3-9.6 21.9-11.5 19.1-10.1 6.2-3.3a28 28 0 0 0 3-1.5h-2.4l7.6 4 18.2 9.6 22 11.5 19 10c3.1 1.6 6.2 3.4 9.3 4.9h.2a2.5 2.5 0 0 0 3.6-2.9l-1.4-8.4-3.5-20.3-4.2-24.4-3.6-21.2-1.2-7.1c-.2-1-.3-2.2-.6-3.3l-.7 2.4 6.2-6 14.7-14.3 17.7-17.3 15.5-15.1c2.5-2.4 5.1-4.8 7.5-7.3a.1.1 0 0 1 .1-.1c1.2-1.2.8-3.9-1.1-4.2l-8.5-1.2-20.4-3-24.5-3.5-21.3-3.1-7-1a19.9 19.9 0 0 0-3.4-.5h-.1l1.5 1.2-3.8-7.8-9.1-18.5-11-22.2-9.5-19.3c-1.6-3.1-3-6.4-4.7-9.4-1.5-3-5.8-.5-4.4 2.4z"/></symbol></svg>