<svg id="Layer_1" data-name="Layer 1" xmlns="http://www.w3.org/2000/svg" width="256" height="256" viewBox="0 0 256 256"><title>logo</title><path id="Path_1" data-name="Path 1" d="M.4,18.6l-.3,69S-1.4,101,2.2,106.1s6.3,18.2,7.5,23.8a13.2,13.2,0,0,1,.4,3.4c-.1,1.7.5,4.4,6.2,3,7.9-2,88.9-43.2,88.9-43.2s.2,2,.6,5.2,40,2.5,39.9-.5l.3-3.3s48.3,34.1,94.7,36.1a13.6,13.6,0,0,1,3.5.7c7.8,2.8,10.1,1.5,10-4.2a5.5,5.5,0,0,1,.2-2.2c3-11.7,2.3-44.4-2.3-113.1-.2-3,3.5-9.2-10.4-5.9l-.7.2c-25.9,3-59.6,12.1-96.7,43.9,0,0-4-5.7-14.6-1.1a4.1,4.1,0,0,1-2.4.4,13.5,13.5,0,0,0-11.1,4.8c-2.5,2.9-9.8,1.5-11.9,4.7C102.9,52.8,78.9,19.9.4,18.6Z" fill="#030504"/><g id="Style" style="isolation:isolate"><g style="isolation:isolate"><path d="M57.1,181.4a6.1,6.1,0,0,1-3.5-.9,6.6,6.6,0,0,1-2.1-2.3,10.7,10.7,0,0,1-.6-3.9,18.4,18.4,0,0,1,.8-5.3,16.1,16.1,0,0,1,1.2-2.3,2.3,2.3,0,0,1,1.6-.8c.6,0,.9.2.9.7s-.1.3-.2.5l-.7,2.3a17.4,17.4,0,0,0-.3,3.8q0,3.9,3,3.9a9.9,9.9,0,0,0,6.9-2.5,11.7,11.7,0,0,0,3.7-5.4,8.8,8.8,0,0,0,.6-2.9,13.2,13.2,0,0,0-1.4-5.5,54.5,54.5,0,0,0-3.2-5.7q-1.5-2.4-2.7-4.8a8.3,8.3,0,0,1-1-3.8,15.3,15.3,0,0,1,2.2-8,25.3,25.3,0,0,1,5.3-6.3,9.6,9.6,0,0,1,6-2.5,3.3,3.3,0,0,1,2.2.9,8.8,8.8,0,0,1,1.9,2.4,6.2,6.2,0,0,1,.8,2.3c0,.6-.3.8-.9.8a3,3,0,0,1-1.6-.7,4.6,4.6,0,0,0-1.8-.7,7.4,7.4,0,0,0-4.1,1.7,17.2,17.2,0,0,0-3.8,4.2,8.7,8.7,0,0,0-1.7,5.4,8.3,8.3,0,0,0,1,3.8,27.6,27.6,0,0,0,2.4,4.4,57,57,0,0,1,3.2,5.9,14.6,14.6,0,0,1,1.4,6,13.4,13.4,0,0,1-1.3,5.6,18.3,18.3,0,0,1-3.2,4.8,16.8,16.8,0,0,1-4.8,3.6A14.4,14.4,0,0,1,57.1,181.4Z" fill="#1a1818"/><path d="M79.4,176.7a2.6,2.6,0,0,1-2.5-1.4,8.1,8.1,0,0,1-.7-3.3,24.2,24.2,0,0,1,.9-5.9c.9-3.5,2.6-8.7,5.1-15.8,1.1-3.2,2.1-6.1,3-9-3.7.1-6.6.3-8.7.5l-3.9.3a.8.8,0,0,1-.9-.9,3,3,0,0,1,.5-1.5,1.4,1.4,0,0,1,1.4-.8l12.2.3.9-3.2c1.4-5.3,2.4-8.2,3-8.8a2,2,0,0,1,1.4-.5,4.2,4.2,0,0,1,2.1.6,1.5,1.5,0,0,1,.9,1.3c0,.5-.8,2.4-2.3,5.8-.7,1.4-1.4,3.1-2.1,4.8h9.1l3.5.2q1.2.1,1.2,1.2a2.2,2.2,0,0,1-.3,1c-.5,1.5-1,2.3-1.4,2.3s-.3-.2-.3-.5-.1-1-.1-1.3-2.2-1-5.8-1H88.9c-2.2,5.7-4.5,12.8-7,21.2-1.4,4.7-2,7.6-2,8.8s.3,1.8,1,1.8,3.6-1.8,6.5-5.4a42.8,42.8,0,0,0,4.2-6.4c.4-.7.7-1,.9-1s.8.4.8,1.1a8.7,8.7,0,0,1-1.2,3,41.7,41.7,0,0,1-5.3,7.6C84.1,175.1,81.6,176.7,79.4,176.7Z" fill="#1a1818"/><path d="M89.7,199.4c-3.9,0-5.9-2.2-5.9-6.5,0-6.2,6.1-12.4,18.4-18.6.7-3.1,1.4-6.8,2.2-10.8-1,2-1.9,3.8-2.7,5.2-2.6,4.1-5.2,6.2-8.1,6.2s-3.2-1.5-3.2-4.5a34.6,34.6,0,0,1,.9-7.8c.8-3.4,1.8-7.1,3-11.2.3-.9,1.1-1.3,2.6-1.3s2.4.5,2.4,1.5a11.1,11.1,0,0,1-.9,2.8c-.7,1.6-1.4,3.5-2.2,5.4a29.3,29.3,0,0,0-2.2,9.8c0,1.2.4,1.8,1,1.8s2.9-1.4,4.9-4.4a77.5,77.5,0,0,0,4.6-8.4,56.8,56.8,0,0,0,2.9-7.2c.3-.9,1.1-1.3,2.6-1.3s2.4.5,2.4,1.4a14.2,14.2,0,0,1-1.2,3.8,94.4,94.4,0,0,0-3.7,12.3c-.3,1.4-.7,2.9-1.1,4.3l2.8-1.8a22.8,22.8,0,0,0,6.2-6.8l1.2-2.1q.5-.9.9-.9c.5,0,.7.4.7,1.1a6.8,6.8,0,0,1-1.1,3,22.5,22.5,0,0,1-6.2,7.3c-1.7,1.2-3.5,2.3-5.3,3.4-1,3.5-2,6.7-3.1,9.6-2.2,6.1-4.8,10.3-7.7,12.7A8,8,0,0,1,89.7,199.4Zm-.8-3.4c2.4,0,4.6-1.3,6.5-4s4.4-8.1,6.1-14.8c-9.9,5.3-14.9,10.5-14.9,15.7C86.6,195,87.4,196,88.9,196Z" fill="#1a1818"/><path d="M117.5,176.7a2.6,2.6,0,0,1-2.5-1.4,8.1,8.1,0,0,1-.7-3.3,24.2,24.2,0,0,1,.9-5.9c.9-3.5,2.6-8.7,5.1-15.8,1.9-5.3,3.4-10,4.5-14.3s2.4-8.2,2.9-8.8a2.5,2.5,0,0,1,1.5-.5,4.2,4.2,0,0,1,2.1.6,1.5,1.5,0,0,1,.9,1.3c0,.5-.8,2.4-2.4,5.8a252.1,252.1,0,0,0-9.8,28.1c-1.4,4.7-2,7.6-2,8.8s.3,1.8,1,1.8,3.6-1.8,6.5-5.4a37.7,37.7,0,0,0,4.2-6.4c.4-.7.7-1,.9-1s.8.4.8,1.1a8.7,8.7,0,0,1-1.2,3,46.1,46.1,0,0,1-5.3,7.7C122.2,175.1,119.7,176.7,117.5,176.7Z" fill="#1a1818"/><path d="M132.7,177.1c-3.9,0-5.9-2.1-5.9-6.3a17.2,17.2,0,0,1,.9-5.1,32.8,32.8,0,0,1,2.4-5.5,29.8,29.8,0,0,1,3.5-5,19.5,19.5,0,0,1,4-3.7,7.6,7.6,0,0,1,4.3-1.4,4.6,4.6,0,0,1,3.6,1.6,6.6,6.6,0,0,1,1.4,4.1c0,2.1-1.3,4.1-3.8,5.8s-6.1,2.6-10.7,2.6a13.8,13.8,0,0,0-1.5,5.6c0,2.8,1.2,4.2,3.5,4.2s6.1-1.6,9.8-4.8a28.1,28.1,0,0,0,6.3-7.9c.3-.7.6-1,.9-1s.7.4.7,1.1a3,3,0,0,1-.4,1.3,25.2,25.2,0,0,1-4.7,6.8,38.8,38.8,0,0,1-6.6,5.4A14.6,14.6,0,0,1,132.7,177.1Zm.9-15.3a16.5,16.5,0,0,0,7.7-1.9q3.3-1.8,3.3-4.2a1.9,1.9,0,0,0-.2-.7l-.6-.6a2.5,2.5,0,0,0-1.3-.3,7.1,7.1,0,0,0-3.9,1.6A24,24,0,0,0,133.6,161.8Z" fill="#1a1818"/></g></g><g id="Kyle" style="isolation:isolate"><g style="isolation:isolate"><path d="M129.7,227.6q-4.6,0-8.1-5.1a44.4,44.4,0,0,1-4.7-10,58.8,58.8,0,0,0-4.6,8,16.7,16.7,0,0,0-.8,2,27.9,27.9,0,0,0-.7,6.7c0,1.4-.7,2-2.2,2s-1.9-.7-1.9-2.2.9-6.8,2.8-13.4c1.2-4.5,2.6-8.9,4-13.2s2.9-9,4.2-13.5,2-6.6,2.4-7a2.1,2.1,0,0,1,1.6-.6,3.6,3.6,0,0,1,2,.6,1.5,1.5,0,0,1,.9,1.3,20.7,20.7,0,0,1-1.4,3.4c-.7,1.4-1.3,2.9-1.9,4.4-3.1,7.9-5.4,14.7-7,20.4l2.8-4.3A156.6,156.6,0,0,1,129,191c4.4-5.2,7.6-7.8,9.4-7.8a3.6,3.6,0,0,1,2.5,1,8.8,8.8,0,0,1,2.1,3,6.9,6.9,0,0,1,1,2.7c0,1-.5,1.5-1.3,1.5a1.5,1.5,0,0,1-1.4-.9c-.8-1.6-1.5-2.3-2.1-2.3s-2.1.8-4.1,2.5a54.2,54.2,0,0,0-6.7,6.8c-3,3.3-5.7,6.7-8.3,10.2a65.5,65.5,0,0,0,4.7,11.6c1.7,3.2,3.6,4.7,5.8,4.7,4.8,0,9-3.7,12.7-11.1q.4-.9.9-.9c.4,0,.7.3.7,1.1a7.6,7.6,0,0,1-1.1,2.9C139.6,223.8,134.9,227.6,129.7,227.6Z" fill="#1a1818"/><path d="M141.6,251c-3.8,0-5.8-2.1-5.8-6.4q0-9.4,18.3-18.6c.7-3.2,1.5-6.8,2.3-10.9-1,2.1-1.9,3.8-2.8,5.3-2.5,4.1-5.2,6.2-8,6.2s-3.2-1.6-3.2-4.6a35.3,35.3,0,0,1,.9-7.8q1-4.9,3-11.1c.3-.9,1.1-1.3,2.6-1.3s2.4.4,2.4,1.4a9.1,9.1,0,0,1-.9,2.8l-2.2,5.5a28.8,28.8,0,0,0-2.2,9.8c0,1.2.3,1.8,1,1.8s2.9-1.5,4.9-4.5a67,67,0,0,0,4.6-8.3,56.8,56.8,0,0,0,2.9-7.2c.2-.9,1.1-1.3,2.6-1.3s2.3.4,2.3,1.4a12.3,12.3,0,0,1-1.1,3.7,96.5,96.5,0,0,0-3.7,12.4c-.4,1.4-.7,2.8-1.1,4.3l2.7-1.8a23.1,23.1,0,0,0,6.3-6.8l1.2-2.1q.5-.9.9-.9c.5,0,.7.3.7,1.1a7.6,7.6,0,0,1-1.1,2.9,21.5,21.5,0,0,1-6.2,7.3,59.5,59.5,0,0,1-5.3,3.4c-1,3.6-2,6.8-3.1,9.7-2.3,6.1-4.8,10.3-7.7,12.6A7.6,7.6,0,0,1,141.6,251Zm-.8-3.4c2.5,0,4.6-1.3,6.6-3.9s4.4-8.1,6.1-14.8c-10,5.2-14.9,10.5-14.9,15.7C138.6,246.6,139.3,247.6,140.8,247.6Z" fill="#1a1818"/><path d="M169.4,228.3A2.5,2.5,0,0,1,167,227a6.7,6.7,0,0,1-.7-3.3,25.6,25.6,0,0,1,.9-6,154.1,154.1,0,0,1,5.1-15.8c1.8-5.2,3.3-10,4.5-14.2s2.4-8.3,2.9-8.8a1.7,1.7,0,0,1,1.5-.5,3.6,3.6,0,0,1,2,.6,1.4,1.4,0,0,1,.9,1.3,29,29,0,0,1-2.3,5.7,247.8,247.8,0,0,0-9.8,28.2q-2.1,6.9-2.1,8.7c0,1.2.4,1.9,1.1,1.9s3.5-1.9,6.4-5.5a28.4,28.4,0,0,0,4.3-6.4q.5-.9.9-.9c.5,0,.7.3.7,1.1a9,9,0,0,1-1.1,2.9,39.1,39.1,0,0,1-5.3,7.7C174.2,226.8,171.7,228.3,169.4,228.3Z" fill="#1a1818"/><path d="M184.7,228.8c-3.9,0-5.9-2.1-5.9-6.3a16.1,16.1,0,0,1,.9-5.1,33.7,33.7,0,0,1,2.4-5.6,43.9,43.9,0,0,1,3.4-5,23.3,23.3,0,0,1,4.1-3.7,8.4,8.4,0,0,1,4.3-1.4,4.4,4.4,0,0,1,3.5,1.7,5.9,5.9,0,0,1,1.5,4.1c0,2.1-1.3,4-3.8,5.7s-6.1,2.6-10.8,2.7a14.8,14.8,0,0,0-1.4,5.6c0,2.8,1.1,4.2,3.5,4.2s6.1-1.6,9.7-4.9a24.5,24.5,0,0,0,6.4-7.9c.3-.6.6-1,.9-1s.7.4.7,1.2a3.1,3.1,0,0,1-.4,1.2,25.9,25.9,0,0,1-4.7,6.8,31.8,31.8,0,0,1-6.7,5.4A14.3,14.3,0,0,1,184.7,228.8Zm.9-15.3a16.5,16.5,0,0,0,7.7-1.9c2.2-1.2,3.2-2.7,3.2-4.3a1.3,1.3,0,0,0-.1-.6,2.3,2.3,0,0,0-.7-.7l-1.2-.2a6.2,6.2,0,0,0-3.9,1.6A20.7,20.7,0,0,0,185.6,213.5Z" fill="#1a1818"/></g></g><g id="WITH" style="isolation:isolate"><g style="isolation:isolate"><path d="M166.6,173.1h-1.2l-.8-9.3-4.4,9.3H159l-.8-10.4h1l.6,9.4,4.2-9.3h1.4l.8,9.3,4.1-9.4h1.1Z" fill="#1a1818"/><path d="M170.9,173.1l1.9-10.4h.9l-1.8,10.4Z" fill="#1a1818"/><path d="M179.9,163.5l-1.7,9.6h-.9l1.7-9.6h-3.9l.2-.8h8.5v.8Z" fill="#1a1818"/><path d="M191.3,173.1h-.9l.8-4.7h-6.1l-.8,4.7h-.9l1.8-10.4h.9l-.8,4.9h6.1l.8-4.9h1Z" fill="#1a1818"/></g></g></svg>